<?xml version="1.0" standalone="no"?>
<!DOCTYPE svg PUBLIC "-//W3C//DTD SVG 20010904//EN"
 "http://www.w3.org/TR/2001/REC-SVG-20010904/DTD/svg10.dtd">
<svg version="1.0" xmlns="http://www.w3.org/2000/svg"
 width="591.000000pt" height="591.000000pt" viewBox="0 0 591.000000 591.000000"
 preserveAspectRatio="xMidYMid meet">

<g transform="translate(0.000000,591.000000) scale(0.100000,-0.100000)"
fill="#000000" stroke="none">
<path d="M0 2955 l0 -2955 2955 0 2955 0 0 2955 0 2955 -2955 0 -2955 0 0
-2955z m4560 2182 c0 -7 -163 -175 -362 -373 -371 -369 -411 -403 -533 -450
-47 -17 -91 -19 -640 -24 l-590 -5 -3 -422 c-1 -233 -6 -423 -10 -423 -4 0
-177 170 -383 378 -405 407 -419 425 -453 563 -13 54 -16 127 -16 417 l0 352
1495 0 c1216 0 1495 -2 1495 -13z m-234 -1736 c-42 -47 -704 -702 -726 -719
-33 -26 -102 -60 -170 -85 -52 -19 -83 -21 -524 -25 l-468 -4 -419 418 c-231
230 -419 422 -419 426 0 5 617 8 1372 8 1345 0 1371 0 1354 -19z m-1896 -1261
l0 -430 1169 0 c886 0 1172 -3 1177 -12 8 -13 -691 -710 -762 -758 -24 -17
-74 -43 -111 -58 l-68 -27 -634 -3 c-699 -3 -680 -4 -806 61 -49 25 -124 95
-397 366 -454 453 -428 397 -428 926 0 194 3 355 7 358 3 4 197 7 430 7 l423
0 0 -430z"/>
</g>
</svg>
